<svg xmlns="http://www.w3.org/2000/svg" width="512" height="512" viewBox="0 0 512 512" role="img" aria-labelledby="title desc">
  <title id="title">BlueVideoSaver logo</title>
  <desc id="desc">Stylized play arrow with Bluesky-inspired petals on a blue background.</desc>
  <rect width="512" height="512" fill="#4fb6ec" rx="48" ry="48"/>
  <path
    fill="#ffffff"
    d="M168 108l218 148c5 4 5 13-1 16l-99 49v92c0 7-8 11-14 7l-116-92c-2-2-4-5-4-8V160c0-8 9-13 16-8l72 50V120c0-7 8-12 14-8z"
  />
  <path
    fill="#ffffff"
    d="M329 124c20-18 54-12 70 12-18-2-33 6-46 20-7-10-16-18-24-22z"
  />
  <path
    fill="#ffffff"
    d="M316 146c23-16 52-8 62 16-22 0-36 10-46 26-6-10-11-24-16-42z"
  />
  <path
    fill="#ffffff"
    d="M304 170c21-12 44-3 52 18-17 2-30 12-38 26-7-10-12-24-14-44z"
  />
  <path
    fill="#ffffff"
    d="M432 422c5-6 15-6 20 0-5 6-15 6-20 0z"
  />
</svg>
